# xmcd
#
# Track frame offsets:
#	150
#	17655
#	37710
#	54777
#	59790
#
# Disc length: 1022 seconds
#
# Revision: 1
# Processed by: cddbd v1.5.2PL0 Copyright (c) Steve Scherf et al.
# Submitted via: audiograbber 1.83.01
#
DISCID=3403fc05
DTITLE=Teleks - Siivet [CDS)
DYEAR=2002
DGENRE=Pop
TTITLE0=Siivet (Versio 2002)
TTITLE1=Maailmanloppu Meni Jo
TTITLE2=Päivät Kuin Haaveet
TTITLE3=Intro
TTITLE4=Siivet (Oomi Mix)
EXTD=TR.
EXTT0=
EXTT1=
EXTT2=
EXTT3=
EXTT4=
PLAYORDER=
